M48
INCH
T01C0.0400
T02C0.0300
%
T01
X-049212Y+032480
X-049212Y+031496
X-055102Y+020629
X-055102Y+021629
X-055102Y+022629
X-055102Y+023629
X-055102Y+024629
X-055102Y+025629
X-055102Y+026629
X-056102Y+026629
X-056102Y+025629
X-056102Y+024629
X-056102Y+023629
X-056102Y+022629
X-056102Y+021629
X-056102Y+020629
X-049212Y+028543
X-049212Y+027559
X-049212Y+024606
X-049212Y+023622
X-049212Y+020669
X-049212Y+019685
X-049212Y+016732
X-049212Y+015748
X-049212Y+037992
X-049212Y+036417
X-049212Y+042913
X-049212Y+041338
X-049212Y+011811
X-049212Y+010236
X-049212Y+006889
X-049212Y+005314
X-041377Y+024921
X-041377Y+023346
T02
X-048228Y+032480
X-048228Y+031496
X-048228Y+028543
X-048228Y+027559
X-048228Y+024606
X-048228Y+023622
X-048228Y+020669
X-048228Y+019685
X-048228Y+016732
X-048228Y+015748
X-048228Y+037992
X-048228Y+036417
X-048228Y+042913
X-048228Y+041338
X-048228Y+011811
X-048228Y+010236
X-048228Y+006889
X-048228Y+005314
X-040393Y+024921
X-040393Y+023346
X-050196Y+040354
X-045196Y+040354
X-050196Y+044291
X-045196Y+044291
X-050196Y+039370
X-045196Y+039370
X-050196Y+034448
X-045196Y+034448
X-050196Y+033464
X-045196Y+033464
X-050196Y+029527
X-045196Y+029527
X-050196Y+030511
X-045196Y+030511
X-050196Y+026574
X-045196Y+026574
X-050196Y+025590
X-045196Y+025590
X-050196Y+022637
X-045196Y+022637
X-050196Y+021653
X-045196Y+021653
X-050196Y+018700
X-045196Y+018700
X-050196Y+017716
X-045196Y+017716
X-050196Y+014763
X-045196Y+014763
X-050196Y+012992
X-045196Y+012992
X-050196Y+008858
X-045196Y+008858
X-050196Y+007874
X-045196Y+007874
X-050196Y+003937
X-045196Y+003937
X-046850Y+024803
X-042850Y+024803
X-046850Y+023622
X-042850Y+023622
X-046456Y+027952
X-042913Y+027952
X-045196Y+013937
X-050196Y+013937
M30
